<?xml version="1.0" encoding="UTF-8" standalone="no"?>
<!-- Created with Inkscape (http://www.inkscape.org/) -->

<svg
   xmlns:dc="http://purl.org/dc/elements/1.1/"
   xmlns:cc="http://creativecommons.org/ns#"
   xmlns:rdf="http://www.w3.org/1999/02/22-rdf-syntax-ns#"
   xmlns:svg="http://www.w3.org/2000/svg"
   xmlns="http://www.w3.org/2000/svg"
   xmlns:sodipodi="http://sodipodi.sourceforge.net/DTD/sodipodi-0.dtd"
   xmlns:inkscape="http://www.inkscape.org/namespaces/inkscape"
   width="100"
   height="100"
   viewBox="0 0 100 100"
   id="svg2"
   version="1.1"
   inkscape:version="0.91 r13725"
   sodipodi:docname="logo.svg">
  <defs
     id="defs4" />
  <sodipodi:namedview
     id="base"
     pagecolor="#ffffff"
     bordercolor="#666666"
     borderopacity="1.0"
     inkscape:pageopacity="0.0"
     inkscape:pageshadow="2"
     inkscape:zoom="5.0354886"
     inkscape:cx="14.861027"
     inkscape:cy="35.071998"
     inkscape:document-units="px"
     inkscape:current-layer="layer1"
     showgrid="true"
     inkscape:window-width="1920"
     inkscape:window-height="1028"
     inkscape:window-x="0"
     inkscape:window-y="0"
     inkscape:window-maximized="1"
     units="px"
     inkscape:snap-global="false">
    <inkscape:grid
       type="xygrid"
       id="grid4220" />
  </sodipodi:namedview>
  <metadata
     id="metadata7">
    <rdf:RDF>
      <cc:Work
         rdf:about="">
        <dc:format>image/svg+xml</dc:format>
        <dc:type
           rdf:resource="http://purl.org/dc/dcmitype/StillImage" />
        <dc:title></dc:title>
      </cc:Work>
    </rdf:RDF>
  </metadata>
  <g
     inkscape:label="Layer 1"
     inkscape:groupmode="layer"
     id="layer1"
     transform="translate(0,-952.36216)">
    <g
       id="g4463"
       transform="matrix(1.0309804,0,0,1.0309804,-1.4417166,-31.271454)">
      <path
         id="path4349"
         transform="translate(0,952.36216)"
         d="m 64.894531,13.423828 -30.261719,0.320313 a 6.6845002,6.6845002 0 0 1 -0.248046,1.001953 l 30.683593,-0.324219 a 6.6845002,6.6845002 0 0 1 -0.173828,-0.998047 z m 1.337891,3.41211 -53.832031,30.046874 a 6.6845002,6.6845002 0 0 1 0.402343,0.919922 L 66.917969,17.599609 a 6.6845002,6.6845002 0 0 1 -0.685547,-0.763671 z m -39.875,2.25 c -1.69113,3.018406 -3.973855,7.08059 -6.683594,11.830078 -2.258129,3.95793 -4.554753,7.935148 -6.357422,10.955078 -0.835061,1.398945 -1.531017,2.527815 -2.099609,3.416015 a 6.6845002,6.6845002 0 0 1 0.681641,0.800782 c 0.597208,-0.92371 1.376008,-2.195112 2.277343,-3.705079 1.809195,-3.03087 4.105431,-7.009843 6.365235,-10.970703 2.847897,-4.991649 5.181978,-9.145399 6.855468,-12.132812 a 6.6845002,6.6845002 0 0 1 -1.039062,-0.193359 z m 47.09375,0.09961 a 6.6845002,6.6845002 0 0 1 -1.025391,0.21875 c 1.344226,2.405587 4.154832,7.424364 7.675781,13.595703 2.259806,3.96086 4.55604,7.941786 6.365235,10.972656 0.515741,0.864004 0.877921,1.431328 1.302734,2.119141 a 6.6845002,6.6845002 0 0 1 0.671875,-0.818359 C 88.065668,44.660936 87.769724,44.20205 87.326172,43.458984 85.523503,40.439044 83.226879,36.463789 80.96875,32.505859 77.574023,26.555759 74.885852,21.753618 73.451172,19.185547 Z M 87.125,52.433594 32.40625,82.912109 a 6.6845002,6.6845002 0 0 1 0.701172,0.753907 L 87.578125,53.324219 A 6.6845002,6.6845002 0 0 1 87.125,52.433594 Z m 0.980469,1.644531 c -1.217319,2.179839 -4.075137,7.287613 -7.664063,13.578125 -2.258129,3.9579 -4.552802,7.933225 -6.355468,10.953125 -0.54764,0.917455 -0.935676,1.527322 -1.376954,2.240234 a 6.6845002,6.6845002 0 0 1 1.033204,0.228516 c 0.398918,-0.64893 0.724978,-1.159302 1.201171,-1.957031 1.809195,-3.0309 4.107384,-7.009903 6.367188,-10.970703 3.392523,-5.946289 6.078828,-10.741831 7.517578,-13.316407 a 6.6845002,6.6845002 0 0 1 -0.722656,-0.755859 z m -76.400391,0.132813 a 6.6845002,6.6845002 0 0 1 -0.720703,0.759765 c 1.41885,2.539246 4.131435,7.382255 7.552734,13.378906 2.259804,3.9609 4.557993,7.941757 6.367188,10.972657 0.490115,0.821051 0.829764,1.350762 1.238281,2.013672 a 6.6845002,6.6845002 0 0 1 1.058594,-0.1875 c -0.455156,-0.733654 -0.865586,-1.381719 -1.4375,-2.339844 -1.802669,-3.0199 -4.099293,-6.997078 -6.357422,-10.955078 -3.543528,-6.210865 -6.378301,-11.274834 -7.701172,-13.642578 z m 53.671875,31.207031 -31.169922,0.330078 a 6.6845002,6.6845002 0 0 1 0.242188,0.998047 l 30.695312,-0.324219 a 6.6845002,6.6845002 0 0 1 0.232422,-1.003906 z"
         style="color:#000000;font-style:normal;font-variant:normal;font-weight:normal;font-stretch:normal;font-size:medium;line-height:normal;font-family:sans-serif;text-indent:0;text-align:start;text-decoration:none;text-decoration-line:none;text-decoration-style:solid;text-decoration-color:#000000;letter-spacing:normal;word-spacing:normal;text-transform:none;direction:ltr;block-progression:tb;writing-mode:lr-tb;baseline-shift:baseline;text-anchor:start;white-space:normal;clip-rule:nonzero;display:inline;overflow:visible;visibility:visible;opacity:1;isolation:auto;mix-blend-mode:normal;color-interpolation:sRGB;color-interpolation-filters:linearRGB;solid-color:#000000;solid-opacity:1;fill:#cccccc;fill-opacity:1;fill-rule:evenodd;stroke:none;stroke-width:1px;stroke-linecap:butt;stroke-linejoin:miter;stroke-miterlimit:4;stroke-dasharray:none;stroke-dashoffset:0;stroke-opacity:1;color-rendering:auto;image-rendering:auto;shape-rendering:auto;text-rendering:auto;enable-background:accumulate"
         inkscape:connector-curvature="0" />
      <circle
         style="fill:#55924e;fill-opacity:1;stroke:none;stroke-width:2;stroke-linecap:round;stroke-miterlimit:4;stroke-dasharray:none;stroke-dashoffset:0;stroke-opacity:1"
         id="circle4325"
         cx="27.852381"
         cy="1040.1567"
         r="4.684495" />
      <circle
         r="1.5"
         cy="1038.1107"
         cx="29.600557"
         id="circle4327"
         style="fill:#ffffff;fill-opacity:0.33529412;stroke:none;stroke-width:1;stroke-linecap:round;stroke-miterlimit:4;stroke-dasharray:none;stroke-dashoffset:0;stroke-opacity:1" />
      <circle
         r="4.684495"
         cy="1039.8171"
         cx="71.740875"
         id="circle4333"
         style="fill:#00a9de;fill-opacity:1;stroke:none;stroke-width:2;stroke-linecap:round;stroke-miterlimit:4;stroke-dasharray:none;stroke-dashoffset:0;stroke-opacity:1" />
      <circle
         style="fill:#ffffff;fill-opacity:0.33529412;stroke:none;stroke-width:1;stroke-linecap:round;stroke-miterlimit:4;stroke-dasharray:none;stroke-dashoffset:0;stroke-opacity:1"
         id="circle4335"
         cx="73.489052"
         cy="1037.7711"
         r="1.5" />
      <circle
         r="4.684495"
         cy="1002.226"
         cx="93.287941"
         id="circle4240"
         style="fill:#55924e;fill-opacity:1;stroke:none;stroke-width:2;stroke-linecap:round;stroke-miterlimit:4;stroke-dasharray:none;stroke-dashoffset:0;stroke-opacity:1" />
      <circle
         style="fill:#ffffff;fill-opacity:0.33529412;stroke:none;stroke-width:1;stroke-linecap:round;stroke-miterlimit:4;stroke-dasharray:none;stroke-dashoffset:0;stroke-opacity:1"
         id="circle4242"
         cx="95.036118"
         cy="1000.1799"
         r="1.5" />
      <circle
         style="fill:#00a9de;fill-opacity:1;stroke:none;stroke-width:2;stroke-linecap:round;stroke-miterlimit:4;stroke-dasharray:none;stroke-dashoffset:0;stroke-opacity:1"
         id="circle4244"
         cx="71.542282"
         cy="965.14716"
         r="4.684495" />
      <circle
         r="1.5"
         cy="963.10114"
         cx="73.290459"
         id="circle4246"
         style="fill:#ffffff;fill-opacity:0.33529412;stroke:none;stroke-width:1;stroke-linecap:round;stroke-miterlimit:4;stroke-dasharray:none;stroke-dashoffset:0;stroke-opacity:1" />
      <circle
         style="fill:#55924e;fill-opacity:1;stroke:none;stroke-width:2;stroke-linecap:round;stroke-miterlimit:4;stroke-dasharray:none;stroke-dashoffset:0;stroke-opacity:1"
         id="circle4317"
         cx="28.050972"
         cy="964.99023"
         r="4.684495" />
      <circle
         r="1.5"
         cy="962.94421"
         cx="29.799149"
         id="circle4319"
         style="fill:#ffffff;fill-opacity:0.33529412;stroke:none;stroke-width:1;stroke-linecap:round;stroke-miterlimit:4;stroke-dasharray:none;stroke-dashoffset:0;stroke-opacity:1" />
      <circle
         style="fill:#00a9de;fill-opacity:1;stroke:none;stroke-width:2;stroke-linecap:round;stroke-miterlimit:4;stroke-dasharray:none;stroke-dashoffset:0;stroke-opacity:1"
         id="circle4341"
         cx="6.503901"
         cy="1002.3829"
         r="4.684495" />
      <circle
         r="1.5"
         cy="1000.3369"
         cx="8.2520781"
         id="circle4343"
         style="fill:#ffffff;fill-opacity:0.33529412;stroke:none;stroke-width:1;stroke-linecap:round;stroke-miterlimit:4;stroke-dasharray:none;stroke-dashoffset:0;stroke-opacity:1" />
      <path
         id="path4222"
         transform="translate(0,952.36216)"
         d="m 34.671875,11.775391 a 6.6845002,6.6845002 0 0 1 0.06445,0.853515 6.6845002,6.6845002 0 0 1 -0.0078,0.146485 l 30.128906,0 a 6.6845002,6.6845002 0 0 1 0.08398,-1 l -30.269531,0 z m -0.412109,3.310547 a 6.6845002,6.6845002 0 0 1 -0.4375,0.90039 l 26.132812,15.345703 c -2.214763,3.913377 -4.680592,8.244658 -7.123047,12.535157 a 6.6845002,6.6845002 0 0 1 0.871094,0.488281 c 2.437598,-4.280527 4.903447,-8.608398 7.115234,-12.515625 l 10.308594,6.052734 0.0625,11.564453 -14.541015,0 a 6.6845002,6.6845002 0 0 1 0.01758,0.449219 6.6845002,6.6845002 0 0 1 -0.02734,0.550781 l 14.554687,0 0.16211,30.328125 a 6.6845002,6.6845002 0 0 1 0.384765,-0.01367 6.6845002,6.6845002 0 0 1 0.615235,0.03125 l -0.16211,-30.345703 14.441407,0 a 6.6845002,6.6845002 0 0 1 -0.03125,-0.59375 6.6845002,6.6845002 0 0 1 0.01953,-0.40625 l -14.435547,0 -0.05859,-10.976562 14.994141,8.804687 a 6.6845002,6.6845002 0 0 1 0.460937,-0.888672 L 72.123047,37.318359 72.029297,19.451172 a 6.6845002,6.6845002 0 0 1 -0.486328,0.01758 6.6845002,6.6845002 0 0 1 -0.515625,-0.02539 l 0.09375,17.285157 -9.810547,-5.759766 c 1.120025,-1.979964 2.363704,-4.166885 3.351562,-5.923828 1.465945,-2.607235 2.514647,-4.50613 3.587891,-6.447266 a 6.6845002,6.6845002 0 0 1 -0.832031,-0.5625 c -1.079568,1.952374 -2.145713,3.881614 -3.628907,6.519532 -0.984802,1.751508 -2.225532,3.932512 -3.341796,5.90625 l -26.1875,-15.375 z m -2.210938,2.890624 a 6.6845002,6.6845002 0 0 1 -0.84375,0.541016 l 15.064453,25.833984 a 6.6845002,6.6845002 0 0 1 0.873047,-0.490234 L 32.048828,17.976562 Z m 43.634766,0.05469 a 6.6845002,6.6845002 0 0 1 -0.835938,0.554688 l 14.816406,25.662109 a 6.6845002,6.6845002 0 0 1 0.882813,-0.472656 L 75.683594,18.03125 Z m -51.423828,0.09961 -14.9218754,25.84375 a 6.6845002,6.6845002 0 0 1 0.8730474,0.488282 L 25.128906,18.630859 a 6.6845002,6.6845002 0 0 1 -0.86914,-0.5 z m 3.28125,1.15625 0.158203,30.169922 -14.539063,0 a 6.6845002,6.6845002 0 0 1 0.02734,0.564453 6.6845002,6.6845002 0 0 1 -0.02148,0.435547 l 14.539062,0 0.05859,11.22461 -15.298828,-8.650391 a 6.6845002,6.6845002 0 0 1 -0.515625,0.859375 l 15.820312,8.945313 0.0957,18.273437 a 6.6845002,6.6845002 0 0 1 1.001954,0.08789 l -0.09375,-17.794922 9.742187,5.507812 C 34.521999,75.873506 32.644491,79.1428 31.046868,81.92383 a 6.6845002,6.6845002 0 0 1 0.837891,0.548828 c 1.68016,-2.925991 3.417,-5.950322 7.5,-13.070312 l 26.441406,14.947265 a 6.6845002,6.6845002 0 0 1 0.533203,-0.847656 L 39.882812,68.533203 C 42.1981,64.49517 44.638414,60.231734 47.101562,55.927734 A 6.6845002,6.6845002 0 0 1 46.232422,55.4375 c -2.462666,4.303435 -4.90371,8.566349 -7.21875,12.603516 l -10.248047,-5.792969 -0.0625,-11.791016 14.619141,0 a 6.6845002,6.6845002 0 0 1 -0.02539,-0.550781 6.6845002,6.6845002 0 0 1 0.02148,-0.449219 l -14.61914,0 -0.158203,-30.162109 a 6.6845002,6.6845002 0 0 1 -0.490235,0.01758 6.6845002,6.6845002 0 0 1 -0.509765,-0.02539 z M 53.84375,55.353516 A 6.6845002,6.6845002 0 0 1 52.988281,55.875 L 68.125,81.832031 a 6.6845002,6.6845002 0 0 1 0.884766,-0.46875 L 53.84375,55.353516 Z m 35.939453,0.193359 -14.992187,25.96875 a 6.6845002,6.6845002 0 0 1 0.853515,0.519531 L 90.667969,56.013672 a 6.6845002,6.6845002 0 0 1 -0.884766,-0.466797 z m -79.556641,0.01953 A 6.6845002,6.6845002 0 0 1 9.3574219,56.058594 L 24.384766,82.087891 a 6.6845002,6.6845002 0 0 1 0.892578,-0.455079 L 10.226562,55.566406 Z m 24.28125,31.660156 a 6.6845002,6.6845002 0 0 1 0.0293,0.56836 6.6845002,6.6845002 0 0 1 -0.02148,0.43164 l 30.59375,0 a 6.6845002,6.6845002 0 0 1 -0.05273,-0.771484 6.6845002,6.6845002 0 0 1 0.01172,-0.228516 l -30.560547,0 z"
         style="color:#000000;font-style:normal;font-variant:normal;font-weight:normal;font-stretch:normal;font-size:medium;line-height:normal;font-family:sans-serif;text-indent:0;text-align:start;text-decoration:none;text-decoration-line:none;text-decoration-style:solid;text-decoration-color:#000000;letter-spacing:normal;word-spacing:normal;text-transform:none;direction:ltr;block-progression:tb;writing-mode:lr-tb;baseline-shift:baseline;text-anchor:start;white-space:normal;clip-rule:nonzero;display:inline;overflow:visible;visibility:visible;opacity:1;isolation:auto;mix-blend-mode:normal;color-interpolation:sRGB;color-interpolation-filters:linearRGB;solid-color:#000000;solid-opacity:1;fill:#000000;fill-opacity:1;fill-rule:nonzero;stroke:none;stroke-width:1;stroke-linecap:round;stroke-linejoin:miter;stroke-miterlimit:4;stroke-dasharray:none;stroke-dashoffset:0;stroke-opacity:1;color-rendering:auto;image-rendering:auto;shape-rendering:auto;text-rendering:auto;enable-background:accumulate"
         inkscape:connector-curvature="0" />
      <circle
         style="fill:#f10f83;fill-opacity:1;stroke:none;stroke-width:2;stroke-linecap:round;stroke-miterlimit:4;stroke-dasharray:none;stroke-dashoffset:0;stroke-opacity:1"
         id="circle4226"
         cx="49.981121"
         cy="1002.2676"
         r="4.684495" />
      <circle
         r="1.5"
         cy="1000.2216"
         cx="51.729298"
         id="path4238"
         style="fill:#ffffff;fill-opacity:0.33529412;stroke:none;stroke-width:1;stroke-linecap:round;stroke-miterlimit:4;stroke-dasharray:none;stroke-dashoffset:0;stroke-opacity:1" />
    </g>
  </g>
</svg>
